<svg width="50" height="50" viewBox="0 0 50 50" fill="none" xmlns="http://www.w3.org/2000/svg">
<rect width="50" height="50" fill="white"/>
<path d="M24.1513 12.5291C24.1513 11.2231 23.096 10.1677 21.7899 10.1677L13.5845 10.1677C12.2785 10.1677 11.2231 11.2231 11.2231 12.5291V20.7346C11.2231 22.0406 12.2785 23.096 13.5845 23.096H21.7899C23.096 23.096 24.1513 22.0406 24.1513 20.7346V12.5291ZM22.2165 20.7346C22.2165 20.972 22.0274 21.1611 21.7899 21.1611H13.5845C13.347 21.1611 13.1579 20.972 13.1579 20.7346V12.5291C13.1579 12.2917 13.347 12.1026 13.5845 12.1026H21.7899C22.0274 12.1026 22.2165 12.2917 22.2165 12.5291V20.7346Z" fill="black"/>
<path d="M39.3222 12.5291C39.3222 11.2231 38.2669 10.1677 36.9608 10.1677L28.7554 10.1677C27.4493 10.1677 26.394 11.2231 26.394 12.5291V20.7346C26.394 22.0406 27.4493 23.096 28.7554 23.096H36.9608C38.2669 23.096 39.3222 22.0406 39.3222 20.7346V12.5291ZM37.3874 20.7346C37.3874 20.972 37.1983 21.1611 36.9608 21.1611H28.7554C28.5179 21.1611 28.3288 20.972 28.3288 20.7346V12.5291C28.3288 12.2917 28.5179 12.1026 28.7554 12.1026H36.9608C37.1983 12.1026 37.3874 12.2917 37.3874 12.5291V20.7346Z" fill="black"/>
<path d="M24.1513 27.1724C24.1513 25.8664 23.096 24.811 21.7899 24.811H13.5845C12.2785 24.811 11.2231 25.8664 11.2231 27.1724V35.3779C11.2231 36.6839 12.2785 37.7393 13.5845 37.7393H21.7899C23.096 37.7393 24.1513 36.6839 24.1513 35.3779V27.1724ZM22.2165 35.3779C22.2165 35.6154 22.0274 35.8044 21.7899 35.8044H13.5845C13.347 35.8044 13.1579 35.6154 13.1579 35.3779V27.1724C13.1579 26.935 13.347 26.7459 13.5845 26.7459H21.7899C22.0274 26.7459 22.2165 26.935 22.2165 27.1724V35.3779Z" fill="black"/>
<path d="M32.8581 25.0308C29.2918 25.0308 26.394 27.9286 26.394 31.4949C26.394 35.0611 29.2918 37.959 32.8581 37.959C36.4244 37.959 39.3222 35.0611 39.3222 31.4949C39.3222 27.9286 36.4244 25.0308 32.8581 25.0308ZM32.8581 36.0242C30.3604 36.0242 28.3288 33.9926 28.3288 31.4949C28.3288 28.9972 30.3604 26.9656 32.8581 26.9656C35.3558 26.9656 37.3874 28.9972 37.3874 31.4949C37.3874 33.9926 35.3558 36.0242 32.8581 36.0242Z" fill="black"/>
</svg>
