<svg width="32" height="32" viewBox="0 0 32 32" fill="none" xmlns="http://www.w3.org/2000/svg">
<path d="M14.7454 11.7104C14.7412 11.744 14.7412 11.7822 14.7412 11.8197C14.7412 11.9653 14.7703 12.1053 14.8228 12.2342L14.8697 12.3308L15.0552 12.8055L16.019 15.2641L16.8596 17.4112C17.0994 17.8446 17.4834 18.1849 17.9466 18.3662L18.0905 18.4191C18.0961 18.4208 18.1055 18.4208 18.1132 18.4229L20.4171 19.2152V19.2169L21.2979 19.5194L21.3581 19.5397C21.3602 19.5397 21.3637 19.5418 21.3658 19.5418C21.5395 19.5855 21.7096 19.6444 21.872 19.7161C22.2477 19.8782 22.5883 20.1093 22.8792 20.3911C22.9965 20.5031 23.1043 20.6239 23.2041 20.7527C23.2891 20.8609 23.3667 20.9746 23.4366 21.093C23.7439 21.6034 23.9204 22.2035 23.9204 22.8424C23.9204 22.9565 23.9148 23.0668 23.9032 23.1788C23.8994 23.2282 23.8934 23.2758 23.8861 23.323V23.3269C23.8784 23.3769 23.8689 23.4288 23.8595 23.4795C23.8497 23.5289 23.8406 23.5779 23.8294 23.6269C23.8276 23.6325 23.8255 23.6385 23.8234 23.6441C23.8129 23.6938 23.7996 23.7428 23.7859 23.7921C23.7737 23.8387 23.7583 23.8867 23.7411 23.9318C23.726 23.9812 23.7084 24.0299 23.6883 24.0775C23.6711 24.1265 23.6508 24.1762 23.6281 24.2231C23.5657 24.367 23.4915 24.5053 23.4082 24.6372C23.3008 24.8106 23.1781 24.974 23.0417 25.1256C24.1227 23.9633 24.8414 22.4625 25.0203 20.8017C25.0504 20.5294 25.0659 20.2532 25.0659 19.9752C25.0659 19.7977 25.0581 19.622 25.0466 19.4455C24.9104 17.4539 24.0037 15.6727 22.6198 14.4015C22.2382 14.0483 21.8213 13.7339 21.3728 13.4672L20.5256 13.0341L16.2326 10.831C16.1006 10.7744 15.9585 10.7454 15.8149 10.7456C15.259 10.7456 14.8 11.1696 14.7454 11.7104Z" fill="#7F7F7F"/>
<path d="M14.7454 11.7104C14.7412 11.744 14.7412 11.7822 14.7412 11.8197C14.7412 11.9653 14.7703 12.1053 14.8228 12.2342L14.8697 12.3308L15.0552 12.8055L16.019 15.2641L16.8596 17.4112C17.0994 17.8446 17.4834 18.1849 17.9466 18.3662L18.0905 18.4191C18.0961 18.4208 18.1055 18.4208 18.1132 18.4229L20.4171 19.2152V19.2169L21.2979 19.5194L21.3581 19.5397C21.3602 19.5397 21.3637 19.5418 21.3658 19.5418C21.5395 19.5855 21.7096 19.6444 21.872 19.7161C22.2477 19.8782 22.5883 20.1093 22.8792 20.3911C22.9965 20.5031 23.1043 20.6239 23.2041 20.7527C23.2891 20.8609 23.3667 20.9746 23.4366 21.093C23.7439 21.6034 23.9204 22.2035 23.9204 22.8424C23.9204 22.9565 23.9148 23.0668 23.9032 23.1788C23.8994 23.2282 23.8934 23.2758 23.8861 23.323V23.3269C23.8784 23.3769 23.8689 23.4288 23.8595 23.4795C23.8497 23.5289 23.8406 23.5779 23.8294 23.6269C23.8276 23.6325 23.8255 23.6385 23.8234 23.6441C23.8129 23.6938 23.7996 23.7428 23.7859 23.7921C23.7737 23.8387 23.7583 23.8867 23.7411 23.9318C23.726 23.9812 23.7084 24.0299 23.6883 24.0775C23.6711 24.1265 23.6508 24.1762 23.6281 24.2231C23.5657 24.367 23.4915 24.5053 23.4082 24.6372C23.3008 24.8106 23.1781 24.974 23.0417 25.1256C24.1227 23.9633 24.8414 22.4625 25.0203 20.8017C25.0504 20.5294 25.0659 20.2532 25.0659 19.9752C25.0659 19.7977 25.0581 19.622 25.0466 19.4455C24.9104 17.4539 24.0037 15.6727 22.6198 14.4015C22.2382 14.0483 21.8213 13.7339 21.3728 13.4672L20.5256 13.0341L16.2326 10.831C16.1006 10.7744 15.9585 10.7454 15.8149 10.7456C15.259 10.7456 14.8 11.1696 14.7454 11.7104Z" fill="url(#paint0_linear_49_16)"/>
<path d="M7.10136 2C6.49047 2.01085 6 2.51077 6 3.12202V22.6937C6.00245 22.8303 6.01015 22.9651 6.01995 23.1019C6.02871 23.1741 6.03816 23.249 6.05146 23.3218C6.33048 24.8926 7.6972 26.0846 9.34749 26.0846C9.92618 26.0846 10.4688 25.9373 10.9435 25.681C10.9463 25.6789 10.9512 25.6761 10.9537 25.6761L11.1245 25.5728L11.817 25.1653L12.6978 24.6427L12.6999 7.25299C12.6999 6.09737 12.1215 5.07863 11.2362 4.47333C11.2152 4.46073 11.1949 4.44743 11.1763 4.43237L7.74901 2.19115C7.57537 2.07632 7.36602 2.0042 7.14162 2H7.10136Z" fill="#7F7F7F"/>
<path d="M7.10136 2C6.49047 2.01085 6 2.51077 6 3.12202V22.6937C6.00245 22.8303 6.01015 22.9651 6.01995 23.1019C6.02871 23.1741 6.03816 23.249 6.05146 23.3218C6.33048 24.8926 7.6972 26.0846 9.34749 26.0846C9.92618 26.0846 10.4688 25.9373 10.9435 25.681C10.9463 25.6789 10.9512 25.6761 10.9537 25.6761L11.1245 25.5728L11.817 25.1653L12.6978 24.6427L12.6999 7.25299C12.6999 6.09737 12.1215 5.07863 11.2362 4.47333C11.2152 4.46073 11.1949 4.44743 11.1763 4.43237L7.74901 2.19115C7.57537 2.07632 7.36602 2.0042 7.14162 2H7.10136Z" fill="url(#paint1_linear_49_16)"/>
<path d="M20.6911 19.8801L12.811 24.551L12.6976 24.6192V24.6441L11.8168 25.1657L11.1247 25.5742L10.9549 25.6768L10.9434 25.6824C10.4697 25.9397 9.92672 26.0854 9.34838 26.0854C7.69844 26.0854 6.32997 24.894 6.052 23.3225C6.18398 24.4722 6.57573 25.5424 7.16667 26.4747C8.38355 28.3956 10.4413 29.7318 12.8219 29.9639H14.2775C15.5652 29.8295 16.6403 29.3138 17.7703 28.6175L19.5081 27.5547C20.2909 27.053 22.4156 25.819 23.0415 25.1265C23.1777 24.9749 23.3006 24.8125 23.4081 24.6385C23.4914 24.5061 23.5656 24.3679 23.6279 24.224C23.6489 24.175 23.6689 24.1274 23.6881 24.0787C23.7063 24.0304 23.7235 23.9817 23.741 23.9324C23.7735 23.8378 23.7994 23.743 23.8243 23.6453C23.8369 23.5896 23.8485 23.5347 23.86 23.48C23.8978 23.2739 23.9185 23.0621 23.9185 22.8425C23.9185 22.2036 23.742 21.6036 23.4364 21.0939C23.3664 20.9749 23.2894 20.8611 23.204 20.7536C23.1042 20.6241 22.9964 20.504 22.8791 20.392C22.5882 20.1102 22.2486 19.8791 21.8719 19.7167C21.7095 19.6449 21.54 19.5857 21.3657 19.5427C21.3636 19.5427 21.3601 19.5406 21.358 19.5406L21.2978 19.5203L20.6911 19.8801Z" fill="#7F7F7F"/>
<path d="M20.6911 19.8801L12.811 24.551L12.6976 24.6192V24.6441L11.8168 25.1657L11.1247 25.5742L10.9549 25.6768L10.9434 25.6824C10.4697 25.9397 9.92672 26.0854 9.34838 26.0854C7.69844 26.0854 6.32997 24.894 6.052 23.3225C6.18398 24.4722 6.57573 25.5424 7.16667 26.4747C8.38355 28.3956 10.4413 29.7318 12.8219 29.9639H14.2775C15.5652 29.8295 16.6403 29.3138 17.7703 28.6175L19.5081 27.5547C20.2909 27.053 22.4156 25.819 23.0415 25.1265C23.1777 24.9749 23.3006 24.8125 23.4081 24.6385C23.4914 24.5061 23.5656 24.3679 23.6279 24.224C23.6489 24.175 23.6689 24.1274 23.6881 24.0787C23.7063 24.0304 23.7235 23.9817 23.741 23.9324C23.7735 23.8378 23.7994 23.743 23.8243 23.6453C23.8369 23.5896 23.8485 23.5347 23.86 23.48C23.8978 23.2739 23.9185 23.0621 23.9185 22.8425C23.9185 22.2036 23.742 21.6036 23.4364 21.0939C23.3664 20.9749 23.2894 20.8611 23.204 20.7536C23.1042 20.6241 22.9964 20.504 22.8791 20.392C22.5882 20.1102 22.2486 19.8791 21.8719 19.7167C21.7095 19.6449 21.54 19.5857 21.3657 19.5427C21.3636 19.5427 21.3601 19.5406 21.358 19.5406L21.2978 19.5203L20.6911 19.8801Z" fill="url(#paint2_linear_49_16)"/>
<path opacity="0.15" d="M23.9185 22.8425C23.9185 23.0621 23.8978 23.2742 23.8597 23.4804C23.8485 23.535 23.8369 23.5896 23.824 23.6449C23.7994 23.743 23.7735 23.8378 23.741 23.9327C23.7238 23.9817 23.7063 24.0307 23.6881 24.0783C23.6692 24.1274 23.6489 24.175 23.6276 24.224C23.5651 24.3674 23.4919 24.5058 23.4084 24.6381C23.3011 24.8115 23.1783 24.9749 23.0415 25.1261C22.4156 25.819 20.2909 27.053 19.5081 27.5547L17.7703 28.6175C16.4964 29.4024 15.2928 29.958 13.7748 29.9961C13.7031 29.9982 13.6327 30 13.563 30C13.465 30 13.3684 29.9982 13.2714 29.9944C10.7011 29.8964 8.45952 28.5153 7.16667 26.4747C6.56171 25.5217 6.18061 24.444 6.052 23.3225C6.32997 24.894 7.69844 26.0854 9.34838 26.0854C9.92672 26.0854 10.4697 25.9394 10.9434 25.6824L10.9549 25.6765L11.1247 25.5742L11.8168 25.1657L12.6976 24.6441V24.6192L12.811 24.551L20.6911 19.8798L21.2978 19.5203L21.358 19.5406C21.3597 19.5406 21.3636 19.5427 21.3657 19.5427C21.54 19.5857 21.7098 19.6449 21.8719 19.7167C22.2486 19.8791 22.5878 20.1102 22.8791 20.392C22.9963 20.5042 23.1049 20.6251 23.204 20.7536C23.2894 20.8611 23.3664 20.9749 23.4364 21.0939C23.742 21.6036 23.9185 22.2036 23.9185 22.8425Z" fill="#7F7F7F"/>
<path opacity="0.15" d="M23.9185 22.8425C23.9185 23.0621 23.8978 23.2742 23.8597 23.4804C23.8485 23.535 23.8369 23.5896 23.824 23.6449C23.7994 23.743 23.7735 23.8378 23.741 23.9327C23.7238 23.9817 23.7063 24.0307 23.6881 24.0783C23.6692 24.1274 23.6489 24.175 23.6276 24.224C23.5651 24.3674 23.4919 24.5058 23.4084 24.6381C23.3011 24.8115 23.1783 24.9749 23.0415 25.1261C22.4156 25.819 20.2909 27.053 19.5081 27.5547L17.7703 28.6175C16.4964 29.4024 15.2928 29.958 13.7748 29.9961C13.7031 29.9982 13.6327 30 13.563 30C13.465 30 13.3684 29.9982 13.2714 29.9944C10.7011 29.8964 8.45952 28.5153 7.16667 26.4747C6.56171 25.5217 6.18061 24.444 6.052 23.3225C6.32997 24.894 7.69844 26.0854 9.34838 26.0854C9.92672 26.0854 10.4697 25.9394 10.9434 25.6824L10.9549 25.6765L11.1247 25.5742L11.8168 25.1657L12.6976 24.6441V24.6192L12.811 24.551L20.6911 19.8798L21.2978 19.5203L21.358 19.5406C21.3597 19.5406 21.3636 19.5427 21.3657 19.5427C21.54 19.5857 21.7098 19.6449 21.8719 19.7167C22.2486 19.8791 22.5878 20.1102 22.8791 20.392C22.9963 20.5042 23.1049 20.6251 23.204 20.7536C23.2894 20.8611 23.3664 20.9749 23.4364 21.0939C23.742 21.6036 23.9185 22.2036 23.9185 22.8425Z" fill="url(#paint3_linear_49_16)"/>
<defs>
<linearGradient id="paint0_linear_49_16" x1="16.0202" y1="11.9446" x2="24.9709" y2="21.92" gradientUnits="userSpaceOnUse">
<stop stop-color="#37BDFF"/>
<stop offset="0.25" stop-color="#26C6F4"/>
<stop offset="0.5" stop-color="#15D0E9"/>
<stop offset="0.75" stop-color="#3BD6DF"/>
<stop offset="1" stop-color="#62DCD4"/>
</linearGradient>
<linearGradient id="paint1_linear_49_16" x1="9.80957" y1="25.6614" x2="9.52169" y2="3.52528" gradientUnits="userSpaceOnUse">
<stop stop-color="#1B48EF"/>
<stop offset="0.5" stop-color="#2080F1"/>
<stop offset="1" stop-color="#26B8F4"/>
</linearGradient>
<linearGradient id="paint2_linear_49_16" x1="14.9852" y1="24.7421" x2="36.6486" y2="24.7421" gradientUnits="userSpaceOnUse">
<stop stop-color="#39D2FF"/>
<stop offset="0.5" stop-color="#248FFA"/>
<stop offset="1" stop-color="#104CF5"/>
</linearGradient>
<linearGradient id="paint3_linear_49_16" x1="14.9852" y1="24.7421" x2="36.6486" y2="24.7421" gradientUnits="userSpaceOnUse">
<stop stop-color="white"/>
<stop offset="1"/>
</linearGradient>
</defs>
</svg>
