<svg width="117" height="50" viewBox="0 0 117 50" fill="none" xmlns="http://www.w3.org/2000/svg">
<rect x="56.071" y="0.789307" width="4.81371" height="48.4588" rx="2.40685" fill="black"/>
<rect x="0.713448" y="0.789307" width="4.81371" height="48.4588" rx="2.40685" fill="black"/>
<rect width="4.48551" height="35.0263" rx="2.24276" transform="matrix(0.879087 -0.47666 0.670694 0.741734 0 2.13806)" fill="black"/>
<rect width="4.48551" height="33.9625" rx="2.24276" transform="matrix(0.879087 0.47666 -0.670694 0.741734 43.9501 0.789307)" fill="black"/>
<rect width="4.48551" height="64.1736" rx="2.24276" transform="matrix(0.879087 -0.47666 0.670694 0.741734 69.9675 2.37158)" fill="black"/>
<rect width="4.48551" height="21.6719" rx="2.24276" transform="matrix(0.879087 0.47666 -0.670694 0.741734 112.83 0.183472)" fill="black"/>
<rect width="4.48551" height="33.602" rx="2.24276" transform="matrix(0.879087 0.47666 -0.670694 0.741734 92.2546 22.9382)" fill="black"/>
<rect x="41.63" y="24.0869" width="4.81371" height="25.1613" rx="2.40685" fill="black"/>
</svg>
